<svg width="36" height="36" viewBox="0 0 36 36" fill="none" xmlns="http://www.w3.org/2000/svg">
<g clip-path="url(#clip0_272_22721)">
<path d="M32.8508 28.1304L32.5108 27.8304C31.5462 26.971 30.7019 25.9854 30.0008 24.9004C29.235 23.4029 28.776 21.7676 28.6508 20.0904V15.1504C28.6574 12.516 27.7018 9.96987 25.9635 7.99036C24.2252 6.01086 21.8239 4.73425 19.2108 4.40039V3.11039C19.2108 2.75633 19.0701 2.41676 18.8198 2.1664C18.5694 1.91604 18.2298 1.77539 17.8758 1.77539C17.5217 1.77539 17.1822 1.91604 16.9318 2.1664C16.6814 2.41676 16.5408 2.75633 16.5408 3.11039V4.42039C13.951 4.77832 11.5788 6.06265 9.86331 8.0355C8.14787 10.0083 7.20551 12.536 7.21078 15.1504V20.0904C7.08554 21.7676 6.62656 23.4029 5.86078 24.9004C5.17166 25.9827 4.34098 26.9681 3.39078 27.8304L3.05078 28.1304V30.9504H32.8508V28.1304Z" fill="white"/>
<path d="M15.3203 32C15.408 32.6339 15.7221 33.2146 16.2046 33.635C16.6871 34.0553 17.3054 34.2869 17.9453 34.2869C18.5852 34.2869 19.2035 34.0553 19.686 33.635C20.1685 33.2146 20.4826 32.6339 20.5703 32H15.3203Z" fill="white"/>
</g>
<defs>
<clipPath id="clip0_272_22721">
<rect width="36" height="36" fill="white"/>
</clipPath>
</defs>
</svg>
