<svg width="20" height="20" viewBox="0 0 20 20" fill="none" xmlns="http://www.w3.org/2000/svg">
<path d="M11.1601 8.69749L12.3426 7.51582C11.8564 7.08139 11.2536 6.79906 10.6086 6.70377C9.96366 6.60848 9.30491 6.70441 8.71393 6.9797C8.12294 7.25499 7.62565 7.69755 7.28362 8.25259C6.94159 8.80763 6.76984 9.45078 6.78962 10.1024C6.8094 10.7541 7.01985 11.3857 7.39491 11.9189C7.76998 12.4522 8.29319 12.8638 8.89979 13.1027C9.50639 13.3416 10.1697 13.3975 10.8077 13.2632C11.4457 13.129 12.0303 12.8106 12.4892 12.3475L11.3951 11.2533H11.2201C10.9818 11.4625 10.6888 11.5994 10.3755 11.6479C10.0622 11.6964 9.74152 11.6545 9.45116 11.5272C9.16079 11.3999 8.91277 11.1924 8.73619 10.929C8.55962 10.6657 8.46182 10.3575 8.45428 10.0405C8.44673 9.72355 8.52976 9.41101 8.6936 9.13957C8.85745 8.86813 9.09532 8.64906 9.37929 8.50806C9.66327 8.36706 9.98158 8.30999 10.2969 8.34355C10.6121 8.3771 10.9113 8.49988 11.1592 8.69749H11.1601Z" fill="white"/>
<path fill-rule="evenodd" clip-rule="evenodd" d="M10 2.5C10.9849 2.5 11.9602 2.69399 12.8701 3.0709C13.7801 3.44781 14.6069 4.00026 15.3033 4.6967C15.9997 5.39314 16.5522 6.21993 16.9291 7.12987C17.306 8.03982 17.5 9.01509 17.5 10C17.5 10.9849 17.306 11.9602 16.9291 12.8701C16.5522 13.7801 15.9997 14.6069 15.3033 15.3033C14.6069 15.9997 13.7801 16.5522 12.8701 16.9291C11.9602 17.306 10.9849 17.5 10 17.5C8.01088 17.5 6.10322 16.7098 4.6967 15.3033C3.29018 13.8968 2.5 11.9891 2.5 10C2.5 8.01088 3.29018 6.10322 4.6967 4.6967C6.10322 3.29018 8.01088 2.5 10 2.5V2.5ZM10 4.16667C10.766 4.16667 11.5246 4.31755 12.2323 4.6107C12.9401 4.90385 13.5831 5.33354 14.1248 5.87521C14.6665 6.41689 15.0961 7.05995 15.3893 7.76768C15.6824 8.47541 15.8333 9.23396 15.8333 10C15.8333 10.766 15.6824 11.5246 15.3893 12.2323C15.0961 12.9401 14.6665 13.5831 14.1248 14.1248C13.5831 14.6665 12.9401 15.0961 12.2323 15.3893C11.5246 15.6824 10.766 15.8333 10 15.8333C8.4529 15.8333 6.96917 15.2188 5.87521 14.1248C4.78125 13.0308 4.16667 11.5471 4.16667 10C4.16667 8.4529 4.78125 6.96917 5.87521 5.87521C6.96917 4.78125 8.4529 4.16667 10 4.16667V4.16667Z" fill="white"/>
</svg>
