<svg width="1363" height="301" viewBox="0 0 1363 301" fill="none" xmlns="http://www.w3.org/2000/svg">
<rect width="1363" height="301" rx="15" fill="#F0F0F0"/>
<path d="M0 15C0 6.71573 6.71573 0 15 0H37V301H15C6.71573 301 0 294.284 0 286V15Z" fill="#5A49E3"/>
<path d="M113.914 104.898V144H104.488V104.898H113.914ZM125.677 104.898V112.176H92.9937V104.898H125.677ZM140.904 144.537C138.541 144.537 136.428 144.17 134.566 143.436C132.704 142.684 131.128 141.655 129.839 140.348C128.568 139.041 127.592 137.537 126.912 135.836C126.25 134.135 125.918 132.336 125.918 130.438V129.417C125.918 127.287 126.214 125.318 126.805 123.509C127.396 121.683 128.273 120.09 129.437 118.729C130.6 117.368 132.059 116.312 133.814 115.56C135.569 114.79 137.61 114.405 139.937 114.405C141.996 114.405 143.84 114.736 145.469 115.399C147.098 116.061 148.477 117.01 149.605 118.246C150.751 119.481 151.619 120.976 152.21 122.73C152.819 124.485 153.123 126.454 153.123 128.639V132.318H129.383V126.651H144.288V125.953C144.306 124.986 144.135 124.163 143.777 123.482C143.437 122.802 142.936 122.283 142.273 121.925C141.611 121.567 140.805 121.388 139.856 121.388C138.872 121.388 138.057 121.603 137.413 122.032C136.786 122.462 136.294 123.053 135.936 123.805C135.595 124.539 135.354 125.389 135.21 126.356C135.067 127.323 134.996 128.343 134.996 129.417V130.438C134.996 131.512 135.139 132.488 135.425 133.365C135.73 134.243 136.159 134.994 136.714 135.621C137.287 136.23 137.968 136.704 138.755 137.044C139.561 137.385 140.474 137.555 141.495 137.555C142.73 137.555 143.947 137.322 145.147 136.856C146.347 136.391 147.376 135.621 148.235 134.547L152.344 139.435C151.753 140.276 150.912 141.091 149.82 141.878C148.746 142.666 147.457 143.311 145.953 143.812C144.449 144.295 142.766 144.537 140.904 144.537ZM169.075 137.555C169.917 137.555 170.633 137.403 171.224 137.098C171.832 136.776 172.289 136.328 172.593 135.755C172.916 135.165 173.068 134.457 173.05 133.634H181.563C181.581 135.818 181.044 137.734 179.952 139.381C178.877 141.01 177.409 142.281 175.547 143.194C173.703 144.09 171.618 144.537 169.29 144.537C167.016 144.537 165.029 144.17 163.328 143.436C161.627 142.684 160.204 141.646 159.058 140.321C157.93 138.978 157.08 137.411 156.507 135.621C155.952 133.831 155.674 131.888 155.674 129.793V129.176C155.674 127.081 155.952 125.139 156.507 123.348C157.08 121.54 157.93 119.973 159.058 118.648C160.204 117.306 161.618 116.267 163.301 115.533C165.002 114.781 166.98 114.405 169.236 114.405C171.653 114.405 173.784 114.862 175.628 115.775C177.49 116.688 178.949 118.013 180.005 119.75C181.062 121.486 181.581 123.59 181.563 126.061H173.05C173.068 125.183 172.933 124.396 172.647 123.697C172.361 122.999 171.913 122.444 171.304 122.032C170.713 121.603 169.952 121.388 169.021 121.388C168.09 121.388 167.339 121.594 166.766 122.005C166.193 122.417 165.754 122.99 165.45 123.724C165.163 124.44 164.966 125.264 164.859 126.195C164.769 127.126 164.725 128.119 164.725 129.176V129.793C164.725 130.868 164.769 131.879 164.859 132.828C164.966 133.759 165.172 134.583 165.477 135.299C165.781 135.997 166.22 136.552 166.792 136.964C167.365 137.358 168.126 137.555 169.075 137.555ZM194.292 102.75V144H185.242V102.75H194.292ZM193.218 128.478L191.097 128.531C191.097 126.49 191.347 124.61 191.849 122.892C192.35 121.173 193.066 119.678 193.997 118.407C194.928 117.136 196.047 116.151 197.354 115.453C198.661 114.754 200.111 114.405 201.705 114.405C203.137 114.405 204.444 114.611 205.625 115.023C206.825 115.435 207.854 116.097 208.714 117.01C209.591 117.923 210.263 119.114 210.728 120.582C211.211 122.05 211.453 123.84 211.453 125.953V144H202.349V125.899C202.349 124.718 202.179 123.805 201.839 123.16C201.517 122.498 201.051 122.041 200.442 121.791C199.834 121.522 199.091 121.388 198.213 121.388C197.157 121.388 196.298 121.567 195.635 121.925C194.973 122.283 194.463 122.784 194.104 123.429C193.764 124.055 193.532 124.798 193.406 125.658C193.281 126.517 193.218 127.457 193.218 128.478ZM234.146 123.644V130.653H218.006V123.644H234.146ZM251.683 104.898V144H242.283V104.898H251.683ZM273.194 114.942V121.227H255.684V114.942H273.194ZM259.363 107.718H268.414V134.52C268.414 135.29 268.503 135.89 268.682 136.319C268.861 136.731 269.166 137.027 269.595 137.206C270.043 137.367 270.634 137.447 271.368 137.447C271.887 137.447 272.317 137.438 272.657 137.42C272.997 137.385 273.319 137.34 273.624 137.286V143.758C272.854 144.009 272.048 144.197 271.207 144.322C270.365 144.465 269.47 144.537 268.521 144.537C266.587 144.537 264.931 144.233 263.553 143.624C262.192 143.015 261.154 142.057 260.438 140.75C259.721 139.444 259.363 137.743 259.363 135.648V107.718Z" fill="black"/>
<path d="M104.288 72.3608V55.1172H109.397V72.3608C109.397 74.0243 109.033 75.4541 108.304 76.6504C107.575 77.8353 106.578 78.7467 105.313 79.3848C104.06 80.0228 102.647 80.3418 101.075 80.3418C99.4455 80.3418 98.0042 80.0684 96.751 79.5215C95.4977 78.9746 94.5122 78.1372 93.7944 77.0093C93.0767 75.87 92.7178 74.4287 92.7178 72.6855H97.8618C97.8618 73.597 97.9871 74.3205 98.2378 74.856C98.4998 75.3914 98.8701 75.7731 99.3486 76.001C99.8271 76.2288 100.403 76.3428 101.075 76.3428C101.724 76.3428 102.288 76.189 102.767 75.8813C103.245 75.5737 103.615 75.1237 103.877 74.5312C104.151 73.9388 104.288 73.2153 104.288 72.3608ZM123.445 75.8301V67.5928C123.445 67.0003 123.348 66.4933 123.155 66.0718C122.961 65.6388 122.659 65.3027 122.249 65.0635C121.85 64.8242 121.332 64.7046 120.694 64.7046C120.147 64.7046 119.674 64.8014 119.275 64.9951C118.877 65.1774 118.569 65.4451 118.353 65.7983C118.136 66.1401 118.028 66.5446 118.028 67.0117H113.106C113.106 66.2256 113.288 65.4793 113.653 64.7729C114.017 64.0666 114.547 63.4456 115.242 62.9102C115.937 62.3633 116.763 61.936 117.72 61.6284C118.689 61.3208 119.771 61.167 120.967 61.167C122.403 61.167 123.679 61.4062 124.795 61.8848C125.912 62.3633 126.789 63.0811 127.427 64.0381C128.077 64.9951 128.401 66.1914 128.401 67.627V75.5396C128.401 76.5535 128.464 77.3853 128.589 78.0347C128.715 78.6727 128.897 79.231 129.136 79.7095V80H124.163C123.924 79.4987 123.742 78.8721 123.616 78.1201C123.502 77.3568 123.445 76.5934 123.445 75.8301ZM124.095 68.7378L124.129 71.5234H121.377C120.728 71.5234 120.164 71.5975 119.686 71.7456C119.207 71.8937 118.814 72.1045 118.506 72.3779C118.199 72.64 117.971 72.9476 117.823 73.3008C117.686 73.654 117.618 74.0413 117.618 74.4629C117.618 74.8844 117.715 75.2661 117.908 75.6079C118.102 75.9383 118.381 76.2004 118.746 76.394C119.11 76.5763 119.537 76.6675 120.027 76.6675C120.768 76.6675 121.412 76.5194 121.958 76.2231C122.505 75.9269 122.927 75.5623 123.223 75.1294C123.531 74.6965 123.69 74.2863 123.702 73.8989L125 75.9839C124.818 76.451 124.568 76.9352 124.249 77.4365C123.941 77.9378 123.548 78.4106 123.069 78.855C122.591 79.2879 122.015 79.6468 121.343 79.9316C120.671 80.2051 119.874 80.3418 118.951 80.3418C117.777 80.3418 116.712 80.1082 115.755 79.6411C114.809 79.1626 114.057 78.5075 113.499 77.6758C112.952 76.8327 112.679 75.8757 112.679 74.8047C112.679 73.8363 112.861 72.9761 113.226 72.2241C113.59 71.4722 114.126 70.8398 114.832 70.3271C115.55 69.8031 116.444 69.41 117.515 69.1479C118.586 68.8745 119.828 68.7378 121.241 68.7378H124.095ZM137.476 75.2148L141.321 61.5088H144.449L143.44 66.8921L139.595 80H136.98L137.476 75.2148ZM135.528 61.5088L138.279 75.1978L138.536 80H135.459L130.777 61.5088H135.528ZM147.969 74.9756L150.652 61.5088H155.42L150.738 80H147.679L147.969 74.9756ZM144.876 61.5088L148.704 75.1123L149.234 80H146.602L142.757 66.9092L141.783 61.5088H144.876ZM167.879 75.8301V67.5928C167.879 67.0003 167.782 66.4933 167.588 66.0718C167.395 65.6388 167.093 65.3027 166.683 65.0635C166.284 64.8242 165.765 64.7046 165.127 64.7046C164.581 64.7046 164.108 64.8014 163.709 64.9951C163.31 65.1774 163.003 65.4451 162.786 65.7983C162.57 66.1401 162.461 66.5446 162.461 67.0117H157.54C157.54 66.2256 157.722 65.4793 158.086 64.7729C158.451 64.0666 158.981 63.4456 159.676 62.9102C160.371 62.3633 161.197 61.936 162.154 61.6284C163.122 61.3208 164.205 61.167 165.401 61.167C166.836 61.167 168.112 61.4062 169.229 61.8848C170.346 62.3633 171.223 63.0811 171.861 64.0381C172.51 64.9951 172.835 66.1914 172.835 67.627V75.5396C172.835 76.5535 172.898 77.3853 173.023 78.0347C173.148 78.6727 173.331 79.231 173.57 79.7095V80H168.597C168.357 79.4987 168.175 78.8721 168.05 78.1201C167.936 77.3568 167.879 76.5934 167.879 75.8301ZM168.528 68.7378L168.562 71.5234H165.811C165.162 71.5234 164.598 71.5975 164.119 71.7456C163.641 71.8937 163.248 72.1045 162.94 72.3779C162.632 72.64 162.404 72.9476 162.256 73.3008C162.12 73.654 162.051 74.0413 162.051 74.4629C162.051 74.8844 162.148 75.2661 162.342 75.6079C162.535 75.9383 162.815 76.2004 163.179 76.394C163.544 76.5763 163.971 76.6675 164.461 76.6675C165.201 76.6675 165.845 76.5194 166.392 76.2231C166.939 75.9269 167.361 75.5623 167.657 75.1294C167.964 74.6965 168.124 74.2863 168.135 73.8989L169.434 75.9839C169.252 76.451 169.001 76.9352 168.682 77.4365C168.375 77.9378 167.981 78.4106 167.503 78.855C167.024 79.2879 166.449 79.6468 165.777 79.9316C165.105 80.2051 164.307 80.3418 163.384 80.3418C162.211 80.3418 161.146 80.1082 160.188 79.6411C159.243 79.1626 158.491 78.5075 157.933 77.6758C157.386 76.8327 157.112 75.8757 157.112 74.8047C157.112 73.8363 157.295 72.9761 157.659 72.2241C158.024 71.4722 158.559 70.8398 159.266 70.3271C159.983 69.8031 160.878 69.41 161.949 69.1479C163.02 68.8745 164.262 68.7378 165.674 68.7378H168.528ZM187.549 75.9668V53.75H192.505V80H188.045L187.549 75.9668ZM175.86 70.9766V70.6177C175.86 69.2049 176.019 67.9232 176.338 66.7725C176.657 65.6104 177.125 64.6134 177.74 63.7817C178.355 62.95 179.113 62.3063 180.013 61.8506C180.913 61.3949 181.938 61.167 183.089 61.167C184.171 61.167 185.117 61.3949 185.926 61.8506C186.746 62.3063 187.441 62.9557 188.011 63.7988C188.592 64.6305 189.059 65.616 189.412 66.7554C189.765 67.8833 190.022 69.1195 190.181 70.4639V71.25C190.022 72.5374 189.765 73.7337 189.412 74.8389C189.059 75.944 188.592 76.9124 188.011 77.7441C187.441 78.5645 186.746 79.2025 185.926 79.6582C185.105 80.1139 184.148 80.3418 183.055 80.3418C181.904 80.3418 180.879 80.1082 179.979 79.6411C179.09 79.174 178.338 78.5189 177.723 77.6758C177.119 76.8327 176.657 75.8415 176.338 74.7021C176.019 73.5628 175.86 72.321 175.86 70.9766ZM180.782 70.6177V70.9766C180.782 71.7399 180.839 72.452 180.953 73.1128C181.078 73.7736 181.277 74.3604 181.551 74.873C181.836 75.3743 182.2 75.7674 182.645 76.0522C183.1 76.3257 183.653 76.4624 184.302 76.4624C185.145 76.4624 185.84 76.2744 186.387 75.8984C186.934 75.5111 187.35 74.9813 187.635 74.3091C187.931 73.6369 188.102 72.8621 188.147 71.9849V69.7461C188.113 69.0283 188.011 68.3846 187.84 67.8149C187.68 67.2339 187.441 66.7383 187.122 66.3281C186.814 65.918 186.427 65.599 185.96 65.3711C185.504 65.1432 184.963 65.0293 184.336 65.0293C183.698 65.0293 183.152 65.1774 182.696 65.4736C182.24 65.7585 181.87 66.1515 181.585 66.6528C181.312 67.1541 181.106 67.7466 180.97 68.4302C180.844 69.1024 180.782 69.8315 180.782 70.6177ZM211.373 76.0522L216.329 55.1172H219.097L219.729 58.6035L214.449 80H211.475L211.373 76.0522ZM208.826 55.1172L212.928 76.0522L212.586 80H209.271L203.75 55.1172H208.826ZM224.087 75.9668L228.138 55.1172H233.213L227.71 80H224.395L224.087 75.9668ZM220.652 55.1172L225.643 76.1377L225.506 80H222.532L217.217 58.5864L217.901 55.1172H220.652ZM243.655 80.3418C242.22 80.3418 240.932 80.1139 239.793 79.6582C238.654 79.1911 237.685 78.5474 236.888 77.7271C236.102 76.9067 235.498 75.9554 235.076 74.873C234.655 73.7793 234.444 72.6172 234.444 71.3867V70.7031C234.444 69.3018 234.643 68.02 235.042 66.8579C235.441 65.6958 236.01 64.6875 236.751 63.833C237.503 62.9785 238.414 62.3234 239.485 61.8677C240.556 61.4006 241.764 61.167 243.108 61.167C244.419 61.167 245.581 61.3835 246.595 61.8164C247.609 62.2493 248.458 62.8646 249.141 63.6621C249.836 64.4596 250.36 65.4167 250.713 66.5332C251.067 67.6383 251.243 68.8688 251.243 70.2246V72.2754H236.546V68.9941H246.407V68.6182C246.407 67.9346 246.281 67.325 246.031 66.7896C245.792 66.2427 245.427 65.8097 244.937 65.4907C244.447 65.1717 243.82 65.0122 243.057 65.0122C242.408 65.0122 241.849 65.1546 241.382 65.4395C240.915 65.7243 240.534 66.123 240.237 66.6357C239.952 67.1484 239.736 67.7523 239.588 68.4473C239.451 69.1309 239.383 69.8828 239.383 70.7031V71.3867C239.383 72.1273 239.485 72.8109 239.69 73.4375C239.907 74.0641 240.209 74.6053 240.596 75.061C240.995 75.5168 241.473 75.87 242.032 76.1206C242.601 76.3713 243.245 76.4966 243.963 76.4966C244.852 76.4966 245.678 76.3257 246.441 75.9839C247.216 75.6307 247.882 75.1009 248.44 74.3945L250.833 76.9922C250.446 77.5505 249.916 78.0859 249.244 78.5986C248.583 79.1113 247.785 79.5329 246.851 79.8633C245.917 80.1823 244.852 80.3418 243.655 80.3418ZM258.848 53.75V80H253.926V53.75H258.848ZM258.147 70.105H256.797C256.809 68.8175 256.98 67.6326 257.31 66.5503C257.64 65.4565 258.113 64.5109 258.729 63.7134C259.344 62.9045 260.079 62.2778 260.933 61.8335C261.799 61.3892 262.756 61.167 263.804 61.167C264.716 61.167 265.542 61.298 266.282 61.5601C267.034 61.8107 267.678 62.2209 268.213 62.7905C268.76 63.3488 269.182 64.0837 269.478 64.9951C269.774 65.9066 269.922 67.0117 269.922 68.3105V80H264.966V68.2764C264.966 67.4561 264.847 66.8123 264.607 66.3452C264.38 65.8667 264.043 65.5306 263.599 65.3369C263.166 65.1318 262.631 65.0293 261.993 65.0293C261.286 65.0293 260.682 65.1603 260.181 65.4224C259.691 65.6844 259.298 66.049 259.002 66.5161C258.706 66.9718 258.489 67.5073 258.353 68.1226C258.216 68.7378 258.147 69.3986 258.147 70.105ZM273.665 53.75H278.587V75.7617L278.091 80H273.665V53.75ZM290.293 70.5664V70.9253C290.293 72.3039 290.145 73.5685 289.849 74.7192C289.564 75.87 289.12 76.8669 288.516 77.71C287.912 78.5417 287.16 79.1911 286.26 79.6582C285.372 80.1139 284.323 80.3418 283.116 80.3418C281.988 80.3418 281.008 80.1139 280.176 79.6582C279.356 79.2025 278.667 78.5588 278.108 77.7271C277.55 76.8953 277.1 75.9212 276.758 74.8047C276.417 73.6882 276.16 72.4691 275.989 71.1475V70.3613C276.16 69.0397 276.417 67.8206 276.758 66.7041C277.1 65.5876 277.55 64.6134 278.108 63.7817C278.667 62.95 279.356 62.3063 280.176 61.8506C280.997 61.3949 281.965 61.167 283.082 61.167C284.301 61.167 285.36 61.4006 286.26 61.8677C287.172 62.3234 287.924 62.9728 288.516 63.8159C289.12 64.6476 289.564 65.6388 289.849 66.7896C290.145 67.9289 290.293 69.1878 290.293 70.5664ZM285.372 70.9253V70.5664C285.372 69.8145 285.315 69.1081 285.201 68.4473C285.098 67.7751 284.916 67.1883 284.654 66.687C284.392 66.1743 284.033 65.7699 283.577 65.4736C283.133 65.1774 282.557 65.0293 281.851 65.0293C281.179 65.0293 280.609 65.1432 280.142 65.3711C279.675 65.599 279.288 65.918 278.98 66.3281C278.684 66.7383 278.462 67.2282 278.313 67.7979C278.165 68.3561 278.074 68.9714 278.04 69.6436V71.8823C278.074 72.7824 278.222 73.5799 278.484 74.2749C278.758 74.9585 279.168 75.4997 279.715 75.8984C280.273 76.2858 280.997 76.4795 281.885 76.4795C282.58 76.4795 283.156 76.3428 283.611 76.0693C284.067 75.7959 284.42 75.4085 284.671 74.9072C284.933 74.4059 285.115 73.8192 285.218 73.147C285.32 72.4634 285.372 71.7228 285.372 70.9253ZM298.548 61.5088V80H293.609V61.5088H298.548ZM293.301 56.6895C293.301 55.9717 293.552 55.3792 294.053 54.9121C294.555 54.445 295.227 54.2114 296.07 54.2114C296.902 54.2114 297.568 54.445 298.069 54.9121C298.582 55.3792 298.838 55.9717 298.838 56.6895C298.838 57.4072 298.582 57.9997 298.069 58.4668C297.568 58.9339 296.902 59.1675 296.07 59.1675C295.227 59.1675 294.555 58.9339 294.053 58.4668C293.552 57.9997 293.301 57.4072 293.301 56.6895Z" fill="#888888"/>
<rect x="92" y="181" width="1179" height="80" rx="13.3333" fill="#CCCCCC"/>
<rect x="105" y="194.333" width="212" height="53.3333" rx="6.66667" fill="#5A49E3"/>
<path d="M171.823 213.167H177.792C178.958 213.167 179.972 213.34 180.833 213.687C181.694 214.035 182.358 214.549 182.823 215.229C183.295 215.91 183.531 216.75 183.531 217.75C183.531 218.618 183.396 219.344 183.125 219.927C182.854 220.51 182.476 220.993 181.99 221.375C181.51 221.75 180.951 222.059 180.312 222.302L179.115 222.979H174.104L174.083 220.156H177.792C178.257 220.156 178.642 220.073 178.948 219.906C179.253 219.74 179.483 219.503 179.635 219.198C179.795 218.885 179.875 218.514 179.875 218.083C179.875 217.646 179.795 217.271 179.635 216.958C179.476 216.646 179.24 216.406 178.927 216.24C178.622 216.073 178.243 215.99 177.792 215.99H175.479V228.333H171.823V213.167ZM180.125 228.333L176.771 221.625L180.646 221.604L184.042 228.177V228.333H180.125ZM191.031 228.542C190.115 228.542 189.295 228.399 188.573 228.115C187.851 227.823 187.24 227.424 186.74 226.917C186.247 226.41 185.868 225.826 185.604 225.167C185.347 224.507 185.219 223.809 185.219 223.073V222.677C185.219 221.851 185.333 221.087 185.562 220.385C185.792 219.677 186.132 219.059 186.583 218.531C187.035 218.003 187.601 217.594 188.281 217.302C188.962 217.003 189.753 216.854 190.656 216.854C191.455 216.854 192.17 216.983 192.802 217.24C193.434 217.497 193.969 217.865 194.406 218.344C194.851 218.823 195.187 219.403 195.417 220.083C195.653 220.764 195.771 221.528 195.771 222.375V223.802H186.562V221.604H192.344V221.333C192.351 220.958 192.285 220.639 192.146 220.375C192.014 220.111 191.819 219.91 191.562 219.771C191.306 219.632 190.993 219.562 190.625 219.562C190.243 219.562 189.927 219.646 189.677 219.812C189.434 219.979 189.243 220.208 189.104 220.5C188.972 220.785 188.878 221.115 188.823 221.49C188.767 221.865 188.74 222.26 188.74 222.677V223.073C188.74 223.49 188.795 223.868 188.906 224.208C189.024 224.549 189.191 224.84 189.406 225.083C189.628 225.319 189.892 225.503 190.198 225.635C190.51 225.767 190.865 225.833 191.26 225.833C191.74 225.833 192.212 225.743 192.677 225.562C193.142 225.382 193.542 225.083 193.875 224.667L195.469 226.562C195.24 226.889 194.913 227.205 194.49 227.51C194.073 227.816 193.573 228.066 192.99 228.26C192.406 228.448 191.753 228.542 191.031 228.542ZM203.052 225.5V220.854C203.052 220.535 203.007 220.26 202.917 220.031C202.826 219.802 202.684 219.625 202.49 219.5C202.295 219.368 202.035 219.302 201.708 219.302C201.444 219.302 201.219 219.347 201.031 219.437C200.844 219.528 200.701 219.663 200.604 219.844C200.507 220.024 200.458 220.253 200.458 220.531H196.948C196.948 220.01 197.062 219.528 197.292 219.083C197.528 218.632 197.861 218.24 198.292 217.906C198.729 217.573 199.25 217.316 199.854 217.135C200.465 216.948 201.146 216.854 201.896 216.854C202.792 216.854 203.59 217.003 204.292 217.302C205 217.601 205.559 218.049 205.969 218.646C206.378 219.236 206.583 219.979 206.583 220.875V225.49C206.583 226.226 206.625 226.785 206.708 227.167C206.792 227.542 206.91 227.872 207.062 228.156V228.333H203.542C203.375 227.986 203.25 227.562 203.167 227.062C203.09 226.556 203.052 226.035 203.052 225.5ZM203.479 221.448L203.5 223.323H201.948C201.622 223.323 201.344 223.368 201.115 223.458C200.892 223.549 200.712 223.674 200.573 223.833C200.441 223.986 200.344 224.16 200.281 224.354C200.226 224.549 200.198 224.753 200.198 224.969C200.198 225.177 200.247 225.365 200.344 225.531C200.448 225.691 200.587 225.816 200.76 225.906C200.934 225.997 201.128 226.042 201.344 226.042C201.733 226.042 202.062 225.969 202.333 225.823C202.611 225.67 202.823 225.486 202.969 225.271C203.115 225.056 203.187 224.854 203.187 224.667L203.958 226.104C203.819 226.382 203.66 226.663 203.479 226.948C203.306 227.233 203.087 227.497 202.823 227.74C202.566 227.976 202.25 228.17 201.875 228.323C201.5 228.469 201.045 228.542 200.51 228.542C199.816 228.542 199.177 228.399 198.594 228.115C198.017 227.83 197.556 227.434 197.208 226.927C196.861 226.413 196.687 225.823 196.687 225.156C196.687 224.573 196.792 224.052 197 223.594C197.215 223.135 197.538 222.747 197.969 222.427C198.399 222.108 198.948 221.865 199.615 221.698C200.281 221.531 201.066 221.448 201.969 221.448H203.479ZM213.292 225.833C213.618 225.833 213.896 225.774 214.125 225.656C214.361 225.531 214.538 225.358 214.656 225.135C214.781 224.906 214.84 224.632 214.833 224.312H218.135C218.142 225.16 217.934 225.903 217.51 226.542C217.094 227.174 216.524 227.667 215.802 228.021C215.087 228.368 214.278 228.542 213.375 228.542C212.493 228.542 211.722 228.399 211.062 228.115C210.403 227.823 209.851 227.42 209.406 226.906C208.969 226.385 208.639 225.778 208.417 225.083C208.201 224.389 208.094 223.635 208.094 222.823V222.583C208.094 221.771 208.201 221.017 208.417 220.323C208.639 219.622 208.969 219.014 209.406 218.5C209.851 217.979 210.399 217.576 211.052 217.292C211.712 217 212.479 216.854 213.354 216.854C214.292 216.854 215.118 217.031 215.833 217.385C216.556 217.74 217.122 218.253 217.531 218.927C217.941 219.601 218.142 220.417 218.135 221.375H214.833C214.84 221.035 214.788 220.729 214.677 220.458C214.566 220.187 214.392 219.972 214.156 219.812C213.927 219.646 213.632 219.562 213.271 219.562C212.91 219.562 212.618 219.642 212.396 219.802C212.174 219.962 212.003 220.184 211.885 220.469C211.774 220.747 211.698 221.066 211.656 221.427C211.622 221.788 211.604 222.174 211.604 222.583V222.823C211.604 223.24 211.622 223.632 211.656 224C211.698 224.361 211.778 224.681 211.896 224.958C212.014 225.229 212.184 225.444 212.406 225.604C212.628 225.757 212.924 225.833 213.292 225.833ZM225.573 217.062V219.5H218.781V217.062H225.573ZM220.208 214.26H223.719V224.656C223.719 224.955 223.753 225.187 223.823 225.354C223.892 225.514 224.01 225.628 224.177 225.698C224.351 225.76 224.58 225.792 224.865 225.792C225.066 225.792 225.233 225.788 225.365 225.781C225.497 225.767 225.622 225.75 225.74 225.729V228.24C225.441 228.337 225.128 228.41 224.802 228.458C224.476 228.514 224.128 228.542 223.76 228.542C223.01 228.542 222.368 228.424 221.833 228.187C221.306 227.951 220.903 227.58 220.625 227.073C220.347 226.566 220.208 225.906 220.208 225.094V214.26ZM233.167 223.573V213.167H236.812V223.573C236.812 224.587 236.58 225.465 236.115 226.208C235.656 226.951 235.031 227.528 234.24 227.937C233.455 228.34 232.573 228.542 231.594 228.542C230.58 228.542 229.677 228.372 228.885 228.031C228.101 227.691 227.483 227.167 227.031 226.458C226.587 225.75 226.365 224.847 226.365 223.75H230.031C230.031 224.264 230.09 224.667 230.208 224.958C230.326 225.243 230.5 225.444 230.729 225.562C230.965 225.674 231.253 225.729 231.594 225.729C231.927 225.729 232.208 225.646 232.437 225.479C232.674 225.306 232.854 225.059 232.979 224.74C233.104 224.413 233.167 224.024 233.167 223.573ZM246.948 224.302C246.948 224.066 246.913 223.854 246.844 223.667C246.774 223.472 246.646 223.292 246.458 223.125C246.271 222.958 246 222.792 245.646 222.625C245.299 222.451 244.84 222.271 244.271 222.083C243.604 221.861 242.962 221.611 242.344 221.333C241.726 221.049 241.174 220.719 240.687 220.344C240.201 219.962 239.816 219.517 239.531 219.01C239.247 218.497 239.104 217.899 239.104 217.219C239.104 216.566 239.25 215.979 239.542 215.458C239.833 214.931 240.24 214.483 240.76 214.115C241.288 213.74 241.906 213.455 242.615 213.26C243.323 213.059 244.097 212.958 244.937 212.958C246.049 212.958 247.028 213.153 247.875 213.542C248.729 213.924 249.396 214.469 249.875 215.177C250.361 215.878 250.604 216.708 250.604 217.667H246.969C246.969 217.285 246.889 216.948 246.729 216.656C246.576 216.365 246.344 216.135 246.031 215.969C245.719 215.802 245.326 215.719 244.854 215.719C244.396 215.719 244.01 215.788 243.698 215.927C243.385 216.066 243.149 216.253 242.99 216.49C242.83 216.719 242.75 216.972 242.75 217.25C242.75 217.479 242.812 217.687 242.937 217.875C243.069 218.056 243.253 218.226 243.49 218.385C243.733 218.545 244.024 218.698 244.365 218.844C244.712 218.99 245.101 219.132 245.531 219.271C246.337 219.528 247.052 219.816 247.677 220.135C248.309 220.448 248.84 220.806 249.271 221.208C249.708 221.604 250.038 222.056 250.26 222.562C250.49 223.069 250.604 223.642 250.604 224.281C250.604 224.962 250.472 225.566 250.208 226.094C249.944 226.622 249.566 227.069 249.073 227.437C248.58 227.799 247.99 228.073 247.302 228.26C246.615 228.448 245.847 228.542 245 228.542C244.222 228.542 243.455 228.444 242.698 228.25C241.948 228.049 241.267 227.743 240.656 227.333C240.045 226.917 239.556 226.385 239.187 225.74C238.826 225.087 238.646 224.312 238.646 223.417H242.312C242.312 223.861 242.372 224.236 242.49 224.542C242.608 224.847 242.781 225.094 243.01 225.281C243.24 225.462 243.521 225.594 243.854 225.677C244.187 225.753 244.569 225.792 245 225.792C245.465 225.792 245.84 225.726 246.125 225.594C246.41 225.455 246.618 225.274 246.75 225.052C246.882 224.823 246.948 224.573 246.948 224.302Z" fill="white"/>
<rect x="337" y="194.333" width="212" height="53.3333" rx="6.66667" fill="#5A49E3"/>
<path d="M418.844 213.167V228.333H415.198L409.833 218.896V228.333H406.177V213.167H409.833L415.198 222.604V213.167H418.844ZM420.552 222.812V222.594C420.552 221.767 420.67 221.007 420.906 220.312C421.142 219.611 421.49 219.003 421.948 218.49C422.406 217.976 422.972 217.576 423.646 217.292C424.319 217 425.097 216.854 425.979 216.854C426.868 216.854 427.649 217 428.323 217.292C429.003 217.576 429.573 217.976 430.031 218.49C430.49 219.003 430.837 219.611 431.073 220.312C431.309 221.007 431.427 221.767 431.427 222.594V222.812C431.427 223.632 431.309 224.392 431.073 225.094C430.837 225.788 430.49 226.396 430.031 226.917C429.573 227.431 429.007 227.83 428.333 228.115C427.66 228.399 426.882 228.542 426 228.542C425.118 228.542 424.337 228.399 423.656 228.115C422.976 227.83 422.406 227.431 421.948 226.917C421.49 226.396 421.142 225.788 420.906 225.094C420.67 224.392 420.552 223.632 420.552 222.812ZM424.062 222.594V222.812C424.062 223.236 424.094 223.632 424.156 224C424.219 224.368 424.323 224.691 424.469 224.969C424.615 225.24 424.812 225.451 425.062 225.604C425.312 225.757 425.625 225.833 426 225.833C426.368 225.833 426.674 225.757 426.917 225.604C427.167 225.451 427.365 225.24 427.51 224.969C427.656 224.691 427.76 224.368 427.823 224C427.885 223.632 427.917 223.236 427.917 222.812V222.594C427.917 222.184 427.885 221.799 427.823 221.437C427.76 221.069 427.656 220.747 427.51 220.469C427.365 220.184 427.167 219.962 426.917 219.802C426.667 219.642 426.354 219.562 425.979 219.562C425.611 219.562 425.302 219.642 425.052 219.802C424.809 219.962 424.615 220.184 424.469 220.469C424.323 220.747 424.219 221.069 424.156 221.437C424.094 221.799 424.062 222.184 424.062 222.594ZM439.469 225.75V212.333H443V228.333H439.833L439.469 225.75ZM432.552 222.833V222.615C432.552 221.76 432.646 220.983 432.833 220.281C433.021 219.573 433.299 218.965 433.667 218.458C434.035 217.944 434.493 217.549 435.042 217.271C435.59 216.993 436.222 216.854 436.938 216.854C437.576 216.854 438.135 217.003 438.615 217.302C439.094 217.594 439.503 218.003 439.844 218.531C440.184 219.059 440.462 219.677 440.677 220.385C440.892 221.087 441.056 221.844 441.167 222.656V222.917C441.056 223.681 440.892 224.403 440.677 225.083C440.462 225.757 440.184 226.354 439.844 226.875C439.503 227.396 439.09 227.806 438.604 228.104C438.125 228.396 437.563 228.542 436.917 228.542C436.201 228.542 435.569 228.399 435.021 228.115C434.479 227.83 434.024 227.431 433.656 226.917C433.295 226.403 433.021 225.799 432.833 225.104C432.646 224.41 432.552 223.653 432.552 222.833ZM436.063 222.615V222.833C436.063 223.257 436.09 223.649 436.146 224.01C436.201 224.372 436.295 224.691 436.427 224.969C436.566 225.24 436.747 225.451 436.969 225.604C437.198 225.757 437.479 225.833 437.813 225.833C438.264 225.833 438.635 225.726 438.927 225.51C439.226 225.295 439.444 224.99 439.583 224.594C439.729 224.198 439.792 223.733 439.771 223.198V222.375C439.785 221.917 439.753 221.514 439.677 221.167C439.601 220.812 439.479 220.517 439.313 220.281C439.153 220.045 438.948 219.868 438.698 219.75C438.455 219.625 438.167 219.562 437.833 219.562C437.507 219.562 437.229 219.639 437 219.792C436.778 219.944 436.597 220.16 436.458 220.437C436.319 220.708 436.219 221.031 436.156 221.406C436.094 221.774 436.063 222.177 436.063 222.615ZM450.448 228.542C449.531 228.542 448.712 228.399 447.99 228.115C447.267 227.823 446.656 227.424 446.156 226.917C445.663 226.41 445.285 225.826 445.021 225.167C444.764 224.507 444.635 223.809 444.635 223.073V222.677C444.635 221.851 444.75 221.087 444.979 220.385C445.208 219.677 445.549 219.059 446 218.531C446.451 218.003 447.017 217.594 447.698 217.302C448.378 217.003 449.17 216.854 450.073 216.854C450.872 216.854 451.587 216.983 452.219 217.24C452.851 217.497 453.385 217.865 453.823 218.344C454.267 218.823 454.604 219.403 454.833 220.083C455.069 220.764 455.188 221.528 455.188 222.375V223.802H445.979V221.604H451.76V221.333C451.767 220.958 451.701 220.639 451.563 220.375C451.431 220.111 451.236 219.91 450.979 219.771C450.722 219.632 450.41 219.562 450.042 219.562C449.66 219.562 449.344 219.646 449.094 219.812C448.851 219.979 448.66 220.208 448.521 220.5C448.389 220.785 448.295 221.115 448.24 221.49C448.184 221.865 448.156 222.26 448.156 222.677V223.073C448.156 223.49 448.212 223.868 448.323 224.208C448.441 224.549 448.608 224.84 448.823 225.083C449.045 225.319 449.309 225.503 449.615 225.635C449.927 225.767 450.281 225.833 450.677 225.833C451.156 225.833 451.628 225.743 452.094 225.562C452.559 225.382 452.958 225.083 453.292 224.667L454.885 226.562C454.656 226.889 454.33 227.205 453.906 227.51C453.49 227.816 452.99 228.066 452.406 228.26C451.823 228.448 451.17 228.542 450.448 228.542ZM462.813 223.573V213.167H466.458V223.573C466.458 224.587 466.226 225.465 465.76 226.208C465.302 226.951 464.677 227.528 463.885 227.937C463.101 228.34 462.219 228.542 461.24 228.542C460.226 228.542 459.323 228.372 458.531 228.031C457.747 227.691 457.128 227.167 456.677 226.458C456.233 225.75 456.01 224.847 456.01 223.75H459.677C459.677 224.264 459.736 224.667 459.854 224.958C459.972 225.243 460.146 225.444 460.375 225.562C460.611 225.674 460.899 225.729 461.24 225.729C461.573 225.729 461.854 225.646 462.083 225.479C462.319 225.306 462.5 225.059 462.625 224.74C462.75 224.413 462.813 224.024 462.813 223.573ZM476.594 224.302C476.594 224.066 476.559 223.854 476.49 223.667C476.42 223.472 476.292 223.292 476.104 223.125C475.917 222.958 475.646 222.792 475.292 222.625C474.944 222.451 474.486 222.271 473.917 222.083C473.25 221.861 472.608 221.611 471.99 221.333C471.372 221.049 470.819 220.719 470.333 220.344C469.847 219.962 469.462 219.517 469.177 219.01C468.892 218.497 468.75 217.899 468.75 217.219C468.75 216.566 468.896 215.979 469.188 215.458C469.479 214.931 469.885 214.483 470.406 214.115C470.934 213.74 471.552 213.455 472.26 213.26C472.969 213.059 473.743 212.958 474.583 212.958C475.694 212.958 476.674 213.153 477.521 213.542C478.375 213.924 479.042 214.469 479.521 215.177C480.007 215.878 480.25 216.708 480.25 217.667H476.615C476.615 217.285 476.535 216.948 476.375 216.656C476.222 216.365 475.99 216.135 475.677 215.969C475.365 215.802 474.972 215.719 474.5 215.719C474.042 215.719 473.656 215.788 473.344 215.927C473.031 216.066 472.795 216.253 472.635 216.49C472.476 216.719 472.396 216.972 472.396 217.25C472.396 217.479 472.458 217.687 472.583 217.875C472.715 218.056 472.899 218.226 473.135 218.385C473.378 218.545 473.67 218.698 474.01 218.844C474.358 218.99 474.747 219.132 475.177 219.271C475.983 219.528 476.698 219.816 477.323 220.135C477.955 220.448 478.486 220.806 478.917 221.208C479.354 221.604 479.684 222.056 479.906 222.562C480.135 223.069 480.25 223.642 480.25 224.281C480.25 224.962 480.118 225.566 479.854 226.094C479.59 226.622 479.212 227.069 478.719 227.437C478.226 227.799 477.635 228.073 476.948 228.26C476.26 228.448 475.493 228.542 474.646 228.542C473.868 228.542 473.101 228.444 472.344 228.25C471.594 228.049 470.913 227.743 470.302 227.333C469.691 226.917 469.201 226.385 468.833 225.74C468.472 225.087 468.292 224.312 468.292 223.417H471.958C471.958 223.861 472.017 224.236 472.135 224.542C472.253 224.847 472.427 225.094 472.656 225.281C472.885 225.462 473.167 225.594 473.5 225.677C473.833 225.753 474.215 225.792 474.646 225.792C475.111 225.792 475.486 225.726 475.771 225.594C476.056 225.455 476.264 225.274 476.396 225.052C476.528 224.823 476.594 224.573 476.594 224.302Z" fill="white"/>
<rect x="569" y="194.333" width="212" height="53.3333" rx="6.66667" fill="#5A49E3"/>
<path d="M647.958 223.187H644.188V220.365H647.958C648.472 220.365 648.889 220.278 649.208 220.104C649.528 219.931 649.76 219.691 649.906 219.385C650.059 219.073 650.135 218.722 650.135 218.333C650.135 217.917 650.059 217.531 649.906 217.177C649.76 216.823 649.528 216.538 649.208 216.323C648.889 216.101 648.472 215.99 647.958 215.99H645.563V228.333H641.906V213.167H647.958C649.174 213.167 650.219 213.389 651.094 213.833C651.976 214.278 652.653 214.889 653.125 215.667C653.597 216.437 653.833 217.319 653.833 218.312C653.833 219.292 653.597 220.146 653.125 220.875C652.653 221.604 651.976 222.174 651.094 222.583C650.219 222.986 649.174 223.187 647.958 223.187ZM659.177 219.854V228.333H655.667V217.062H658.948L659.177 219.854ZM662.51 216.979L662.448 220.24C662.309 220.226 662.122 220.208 661.885 220.187C661.649 220.167 661.451 220.156 661.292 220.156C660.882 220.156 660.528 220.205 660.229 220.302C659.938 220.392 659.694 220.531 659.5 220.719C659.313 220.899 659.174 221.128 659.083 221.406C659 221.684 658.962 222.007 658.969 222.375L658.333 221.958C658.333 221.201 658.406 220.514 658.552 219.896C658.705 219.271 658.92 218.733 659.198 218.281C659.476 217.823 659.813 217.472 660.208 217.229C660.604 216.979 661.049 216.854 661.542 216.854C661.715 216.854 661.885 216.865 662.052 216.885C662.226 216.906 662.378 216.937 662.51 216.979ZM667.427 217.062V228.333H663.906V217.062H667.427ZM663.698 214.156C663.698 213.656 663.878 213.247 664.24 212.927C664.601 212.608 665.069 212.448 665.646 212.448C666.222 212.448 666.691 212.608 667.052 212.927C667.413 213.247 667.594 213.656 667.594 214.156C667.594 214.656 667.413 215.066 667.052 215.385C666.691 215.705 666.222 215.865 665.646 215.865C665.069 215.865 664.601 215.705 664.24 215.385C663.878 215.066 663.698 214.656 663.698 214.156ZM675.5 225.167C675.5 224.972 675.434 224.806 675.302 224.667C675.177 224.521 674.955 224.389 674.635 224.271C674.316 224.146 673.868 224.021 673.292 223.896C672.743 223.778 672.226 223.622 671.74 223.427C671.26 223.233 670.84 222.997 670.479 222.719C670.118 222.441 669.833 222.111 669.625 221.729C669.424 221.347 669.323 220.91 669.323 220.417C669.323 219.937 669.424 219.486 669.625 219.062C669.833 218.632 670.135 218.253 670.531 217.927C670.934 217.594 671.424 217.333 672 217.146C672.576 216.951 673.233 216.854 673.969 216.854C674.983 216.854 675.858 217.01 676.594 217.323C677.33 217.628 677.896 218.059 678.292 218.615C678.694 219.163 678.896 219.799 678.896 220.521H675.385C675.385 220.236 675.337 219.993 675.24 219.792C675.149 219.59 675 219.437 674.792 219.333C674.583 219.222 674.306 219.167 673.958 219.167C673.715 219.167 673.493 219.212 673.292 219.302C673.097 219.392 672.941 219.517 672.823 219.677C672.705 219.837 672.646 220.024 672.646 220.24C672.646 220.392 672.681 220.531 672.75 220.656C672.826 220.774 672.941 220.885 673.094 220.99C673.247 221.087 673.441 221.177 673.677 221.26C673.913 221.337 674.198 221.406 674.531 221.469C675.288 221.608 675.997 221.806 676.656 222.062C677.316 222.319 677.851 222.684 678.26 223.156C678.677 223.628 678.885 224.264 678.885 225.062C678.885 225.562 678.771 226.024 678.542 226.448C678.313 226.865 677.983 227.233 677.552 227.552C677.122 227.865 676.604 228.108 676 228.281C675.396 228.455 674.715 228.542 673.958 228.542C672.882 228.542 671.972 228.351 671.229 227.969C670.486 227.58 669.924 227.094 669.542 226.51C669.167 225.92 668.979 225.323 668.979 224.719H672.25C672.264 225.066 672.347 225.351 672.5 225.573C672.66 225.795 672.872 225.958 673.135 226.062C673.399 226.167 673.705 226.219 674.052 226.219C674.372 226.219 674.635 226.174 674.844 226.083C675.059 225.993 675.222 225.872 675.333 225.719C675.444 225.559 675.5 225.375 675.5 225.167ZM684.073 219.448V228.333H680.563V217.062H683.854L684.073 219.448ZM683.646 222.312L682.844 222.333C682.844 221.542 682.938 220.812 683.125 220.146C683.313 219.479 683.59 218.899 683.958 218.406C684.326 217.913 684.778 217.531 685.313 217.26C685.854 216.99 686.479 216.854 687.188 216.854C687.681 216.854 688.128 216.931 688.531 217.083C688.934 217.229 689.281 217.462 689.573 217.781C689.865 218.094 690.087 218.503 690.24 219.01C690.399 219.51 690.479 220.111 690.479 220.812V228.333H686.969V221.26C686.969 220.781 686.913 220.42 686.802 220.177C686.698 219.934 686.545 219.771 686.344 219.687C686.142 219.604 685.896 219.562 685.604 219.562C685.299 219.562 685.024 219.632 684.781 219.771C684.538 219.91 684.33 220.104 684.156 220.354C683.99 220.597 683.861 220.885 683.771 221.219C683.688 221.552 683.646 221.917 683.646 222.312ZM690.083 222.312L689.104 222.333C689.104 221.542 689.191 220.812 689.365 220.146C689.545 219.479 689.813 218.899 690.167 218.406C690.528 217.913 690.976 217.531 691.51 217.26C692.045 216.99 692.667 216.854 693.375 216.854C693.889 216.854 694.361 216.931 694.792 217.083C695.222 217.236 695.594 217.483 695.906 217.823C696.219 218.163 696.462 218.615 696.635 219.177C696.809 219.733 696.896 220.42 696.896 221.24V228.333H693.375V221.24C693.375 220.774 693.319 220.424 693.208 220.187C693.104 219.944 692.951 219.781 692.75 219.698C692.549 219.608 692.309 219.562 692.031 219.562C691.698 219.562 691.41 219.632 691.167 219.771C690.924 219.91 690.719 220.104 690.552 220.354C690.392 220.597 690.274 220.885 690.198 221.219C690.122 221.552 690.083 221.917 690.083 222.312ZM704.76 225.5V220.854C704.76 220.535 704.715 220.26 704.625 220.031C704.535 219.802 704.392 219.625 704.198 219.5C704.003 219.368 703.743 219.302 703.417 219.302C703.153 219.302 702.927 219.347 702.74 219.437C702.552 219.528 702.41 219.663 702.313 219.844C702.215 220.024 702.167 220.253 702.167 220.531H698.656C698.656 220.01 698.771 219.528 699 219.083C699.236 218.632 699.569 218.24 700 217.906C700.438 217.573 700.958 217.316 701.563 217.135C702.174 216.948 702.854 216.854 703.604 216.854C704.5 216.854 705.299 217.003 706 217.302C706.708 217.601 707.267 218.049 707.677 218.646C708.087 219.236 708.292 219.979 708.292 220.875V225.49C708.292 226.226 708.333 226.785 708.417 227.167C708.5 227.542 708.618 227.872 708.771 228.156V228.333H705.25C705.083 227.986 704.958 227.562 704.875 227.062C704.799 226.556 704.76 226.035 704.76 225.5ZM705.188 221.448L705.208 223.323H703.656C703.33 223.323 703.052 223.368 702.823 223.458C702.601 223.549 702.42 223.674 702.281 223.833C702.149 223.986 702.052 224.16 701.99 224.354C701.934 224.549 701.906 224.753 701.906 224.969C701.906 225.177 701.955 225.365 702.052 225.531C702.156 225.691 702.295 225.816 702.469 225.906C702.642 225.997 702.837 226.042 703.052 226.042C703.441 226.042 703.771 225.969 704.042 225.823C704.319 225.67 704.531 225.486 704.677 225.271C704.823 225.056 704.896 224.854 704.896 224.667L705.667 226.104C705.528 226.382 705.368 226.663 705.188 226.948C705.014 227.233 704.795 227.497 704.531 227.74C704.274 227.976 703.958 228.17 703.583 228.323C703.208 228.469 702.753 228.542 702.219 228.542C701.524 228.542 700.885 228.399 700.302 228.115C699.726 227.83 699.264 227.434 698.917 226.927C698.569 226.413 698.396 225.823 698.396 225.156C698.396 224.573 698.5 224.052 698.708 223.594C698.924 223.135 699.247 222.747 699.677 222.427C700.108 222.108 700.656 221.865 701.323 221.698C701.99 221.531 702.774 221.448 703.677 221.448H705.188Z" fill="white"/>
<rect x="801" y="194.333" width="212" height="53.3333" rx="6.66667" fill="#5A49E3"/>
<path d="M875.26 213.167H878.24L881.625 223.719L885.01 213.167H887.99L882.833 228.333H880.417L875.26 213.167ZM873.448 213.167H876.531L877.104 224.792V228.333H873.448V213.167ZM886.719 213.167H889.812V228.333H886.146V224.792L886.719 213.167ZM895.448 227.01L898.365 217.062H902.135L897.604 230.01C897.507 230.295 897.378 230.601 897.219 230.927C897.059 231.26 896.84 231.576 896.563 231.875C896.285 232.174 895.927 232.417 895.49 232.604C895.059 232.792 894.524 232.885 893.885 232.885C893.545 232.885 893.295 232.868 893.135 232.833C892.983 232.806 892.747 232.753 892.427 232.677V230.167C892.517 230.167 892.594 230.167 892.656 230.167C892.726 230.167 892.802 230.167 892.885 230.167C893.26 230.167 893.559 230.128 893.781 230.052C894.01 229.976 894.184 229.865 894.302 229.719C894.427 229.573 894.524 229.396 894.594 229.187L895.448 227.01ZM894.708 217.062L896.927 224.948L897.313 228.667H894.958L890.948 217.062H894.708ZM911.031 224.302C911.031 224.066 910.997 223.854 910.927 223.667C910.858 223.472 910.729 223.292 910.542 223.125C910.354 222.958 910.083 222.792 909.729 222.625C909.382 222.451 908.924 222.271 908.354 222.083C907.688 221.861 907.045 221.611 906.427 221.333C905.809 221.049 905.257 220.719 904.771 220.344C904.285 219.962 903.899 219.517 903.615 219.01C903.33 218.497 903.188 217.899 903.188 217.219C903.188 216.566 903.333 215.979 903.625 215.458C903.917 214.931 904.323 214.483 904.844 214.115C905.372 213.74 905.99 213.455 906.698 213.26C907.406 213.059 908.181 212.958 909.021 212.958C910.132 212.958 911.111 213.153 911.958 213.542C912.813 213.924 913.479 214.469 913.958 215.177C914.444 215.878 914.688 216.708 914.688 217.667H911.052C911.052 217.285 910.972 216.948 910.813 216.656C910.66 216.365 910.427 216.135 910.115 215.969C909.802 215.802 909.41 215.719 908.938 215.719C908.479 215.719 908.094 215.788 907.781 215.927C907.469 216.066 907.233 216.253 907.073 216.49C906.913 216.719 906.833 216.972 906.833 217.25C906.833 217.479 906.896 217.687 907.021 217.875C907.153 218.056 907.337 218.226 907.573 218.385C907.816 218.545 908.108 218.698 908.448 218.844C908.795 218.99 909.184 219.132 909.615 219.271C910.42 219.528 911.135 219.816 911.76 220.135C912.392 220.448 912.924 220.806 913.354 221.208C913.792 221.604 914.122 222.056 914.344 222.562C914.573 223.069 914.688 223.642 914.688 224.281C914.688 224.962 914.556 225.566 914.292 226.094C914.028 226.622 913.649 227.069 913.156 227.437C912.663 227.799 912.073 228.073 911.385 228.26C910.698 228.448 909.931 228.542 909.083 228.542C908.306 228.542 907.538 228.444 906.781 228.25C906.031 228.049 905.351 227.743 904.74 227.333C904.128 226.917 903.639 226.385 903.271 225.74C902.91 225.087 902.729 224.312 902.729 223.417H906.396C906.396 223.861 906.455 224.236 906.573 224.542C906.691 224.847 906.865 225.094 907.094 225.281C907.323 225.462 907.604 225.594 907.938 225.677C908.271 225.753 908.653 225.792 909.083 225.792C909.549 225.792 909.924 225.726 910.208 225.594C910.493 225.455 910.701 225.274 910.833 225.052C910.965 224.823 911.031 224.573 911.031 224.302ZM925.031 225.833L929.26 229.187L926.99 231.104L922.833 227.75L925.031 225.833ZM929.437 220.448V221.062C929.437 222.222 929.274 223.264 928.948 224.187C928.628 225.104 928.17 225.889 927.573 226.542C926.983 227.187 926.285 227.684 925.479 228.031C924.674 228.372 923.785 228.542 922.812 228.542C921.833 228.542 920.937 228.372 920.125 228.031C919.319 227.684 918.618 227.187 918.021 226.542C917.431 225.889 916.972 225.104 916.646 224.187C916.326 223.264 916.167 222.222 916.167 221.062V220.448C916.167 219.288 916.326 218.247 916.646 217.323C916.972 216.399 917.427 215.615 918.01 214.969C918.601 214.316 919.299 213.819 920.104 213.479C920.917 213.132 921.812 212.958 922.792 212.958C923.764 212.958 924.653 213.132 925.458 213.479C926.271 213.819 926.972 214.316 927.562 214.969C928.16 215.615 928.622 216.399 928.948 217.323C929.274 218.247 929.437 219.288 929.437 220.448ZM925.719 221.062V220.427C925.719 219.677 925.653 219.017 925.521 218.448C925.396 217.872 925.208 217.389 924.958 217C924.708 216.611 924.399 216.319 924.031 216.125C923.67 215.924 923.257 215.823 922.792 215.823C922.306 215.823 921.882 215.924 921.521 216.125C921.16 216.319 920.858 216.611 920.615 217C920.372 217.389 920.187 217.872 920.062 218.448C919.944 219.017 919.885 219.677 919.885 220.427V221.062C919.885 221.806 919.944 222.465 920.062 223.042C920.187 223.611 920.372 224.094 920.615 224.49C920.865 224.885 921.17 225.184 921.531 225.385C921.899 225.587 922.326 225.687 922.812 225.687C923.278 225.687 923.691 225.587 924.052 225.385C924.413 225.184 924.715 224.885 924.958 224.49C925.208 224.094 925.396 223.611 925.521 223.042C925.653 222.465 925.719 221.806 925.719 221.062ZM941.323 225.521V228.333H933.656V225.521H941.323ZM934.958 213.167V228.333H931.302V213.167H934.958Z" fill="white"/>
</svg>
