<svg width="1363" height="167" viewBox="0 0 1363 167" fill="none" xmlns="http://www.w3.org/2000/svg">
<rect width="1363" height="167" rx="15" fill="#F0F0F0"/>
<path d="M0 15C0 6.71573 6.71573 0 15 0H37V167H15C6.71573 167 0 160.284 0 152V15Z" fill="#5A49E3"/>
<path d="M100.906 50.9219L93.3945 48.2383V45.0859L103.602 49.375V51.6367L100.906 50.9219ZM93.3945 53.1719L100.918 50.4297L103.602 49.7852V52.0352L93.3945 56.3242V53.1719ZM118.895 40.9375V58H115.391V40.9375H118.895ZM124.145 40.9375V43.6914H110.223V40.9375H124.145ZM130.672 58.2344C129.688 58.2344 128.805 58.0781 128.023 57.7656C127.242 57.4453 126.578 57.0039 126.031 56.4414C125.492 55.8789 125.078 55.2266 124.789 54.4844C124.5 53.7344 124.355 52.9375 124.355 52.0938V51.625C124.355 50.6641 124.492 49.7852 124.766 48.9883C125.039 48.1914 125.43 47.5 125.938 46.9141C126.453 46.3281 127.078 45.8789 127.812 45.5664C128.547 45.2461 129.375 45.0859 130.297 45.0859C131.195 45.0859 131.992 45.2344 132.688 45.5312C133.383 45.8281 133.965 46.25 134.434 46.7969C134.91 47.3438 135.27 48 135.512 48.7656C135.754 49.5234 135.875 50.3672 135.875 51.2969V52.7031H125.797V50.4531H132.559V50.1953C132.559 49.7266 132.473 49.3086 132.301 48.9414C132.137 48.5664 131.887 48.2695 131.551 48.0508C131.215 47.832 130.785 47.7227 130.262 47.7227C129.816 47.7227 129.434 47.8203 129.113 48.0156C128.793 48.2109 128.531 48.4844 128.328 48.8359C128.133 49.1875 127.984 49.6016 127.883 50.0781C127.789 50.5469 127.742 51.0625 127.742 51.625V52.0938C127.742 52.6016 127.812 53.0703 127.953 53.5C128.102 53.9297 128.309 54.3008 128.574 54.6133C128.848 54.9258 129.176 55.168 129.559 55.3398C129.949 55.5117 130.391 55.5977 130.883 55.5977C131.492 55.5977 132.059 55.4805 132.582 55.2461C133.113 55.0039 133.57 54.6406 133.953 54.1562L135.594 55.9375C135.328 56.3203 134.965 56.6875 134.504 57.0391C134.051 57.3906 133.504 57.6797 132.863 57.9062C132.223 58.125 131.492 58.2344 130.672 58.2344ZM143.035 55.5977C143.449 55.5977 143.816 55.5195 144.137 55.3633C144.457 55.1992 144.707 54.9727 144.887 54.6836C145.074 54.3867 145.172 54.0391 145.18 53.6406H148.355C148.348 54.5312 148.109 55.3242 147.641 56.0195C147.172 56.707 146.543 57.25 145.754 57.6484C144.965 58.0391 144.082 58.2344 143.105 58.2344C142.121 58.2344 141.262 58.0703 140.527 57.7422C139.801 57.4141 139.195 56.9609 138.711 56.3828C138.227 55.7969 137.863 55.1172 137.621 54.3438C137.379 53.5625 137.258 52.7266 137.258 51.8359V51.4961C137.258 50.5977 137.379 49.7617 137.621 48.9883C137.863 48.207 138.227 47.5273 138.711 46.9492C139.195 46.3633 139.801 45.9062 140.527 45.5781C141.254 45.25 142.105 45.0859 143.082 45.0859C144.121 45.0859 145.031 45.2852 145.812 45.6836C146.602 46.082 147.219 46.6523 147.664 47.3945C148.117 48.1289 148.348 49 148.355 50.0078H145.18C145.172 49.5859 145.082 49.2031 144.91 48.8594C144.746 48.5156 144.504 48.2422 144.184 48.0391C143.871 47.8281 143.484 47.7227 143.023 47.7227C142.531 47.7227 142.129 47.8281 141.816 48.0391C141.504 48.2422 141.262 48.5234 141.09 48.8828C140.918 49.2344 140.797 49.6367 140.727 50.0898C140.664 50.5352 140.633 51.0039 140.633 51.4961V51.8359C140.633 52.3281 140.664 52.8008 140.727 53.2539C140.789 53.707 140.906 54.1094 141.078 54.4609C141.258 54.8125 141.504 55.0898 141.816 55.293C142.129 55.4961 142.535 55.5977 143.035 55.5977ZM153.605 40V58H150.23V40H153.605ZM153.125 51.2148H152.199C152.207 50.332 152.324 49.5195 152.551 48.7773C152.777 48.0273 153.102 47.3789 153.523 46.832C153.945 46.2773 154.449 45.8477 155.035 45.543C155.629 45.2383 156.285 45.0859 157.004 45.0859C157.629 45.0859 158.195 45.1758 158.703 45.3555C159.219 45.5273 159.66 45.8086 160.027 46.1992C160.402 46.582 160.691 47.0859 160.895 47.7109C161.098 48.3359 161.199 49.0938 161.199 49.9844V58H157.801V49.9609C157.801 49.3984 157.719 48.957 157.555 48.6367C157.398 48.3086 157.168 48.0781 156.863 47.9453C156.566 47.8047 156.199 47.7344 155.762 47.7344C155.277 47.7344 154.863 47.8242 154.52 48.0039C154.184 48.1836 153.914 48.4336 153.711 48.7539C153.508 49.0664 153.359 49.4336 153.266 49.8555C153.172 50.2773 153.125 50.7305 153.125 51.2148ZM170.422 49.3516V52H163.801V49.3516H170.422ZM177.184 40.9375V58H173.68V40.9375H177.184ZM186.477 45.3203V47.7109H179.094V45.3203H186.477ZM180.922 42.1914H184.297V54.1797C184.297 54.5469 184.344 54.8281 184.438 55.0234C184.539 55.2188 184.688 55.3555 184.883 55.4336C185.078 55.5039 185.324 55.5391 185.621 55.5391C185.832 55.5391 186.02 55.5312 186.184 55.5156C186.355 55.4922 186.5 55.4688 186.617 55.4453L186.629 57.9297C186.34 58.0234 186.027 58.0977 185.691 58.1523C185.355 58.207 184.984 58.2344 184.578 58.2344C183.836 58.2344 183.188 58.1133 182.633 57.8711C182.086 57.6211 181.664 57.2227 181.367 56.6758C181.07 56.1289 180.922 55.4102 180.922 54.5195V42.1914Z" fill="#5A49E3"/>
<path d="M115.994 98.708V104.641H99.5806V98.708H115.994ZM102.151 86.0078V118H94.439V86.0078H102.151ZM121.18 86.0078V118H113.489V86.0078H121.18ZM124.805 106.354V105.893C124.805 104.15 125.054 102.546 125.552 101.081C126.05 99.6016 126.783 98.3198 127.75 97.2358C128.716 96.1519 129.91 95.3096 131.331 94.709C132.752 94.0938 134.393 93.7861 136.253 93.7861C138.128 93.7861 139.776 94.0938 141.197 94.709C142.632 95.3096 143.833 96.1519 144.8 97.2358C145.767 98.3198 146.5 99.6016 146.998 101.081C147.496 102.546 147.745 104.15 147.745 105.893V106.354C147.745 108.083 147.496 109.687 146.998 111.167C146.5 112.631 145.767 113.913 144.8 115.012C143.833 116.096 142.64 116.938 141.219 117.539C139.798 118.139 138.157 118.439 136.297 118.439C134.437 118.439 132.789 118.139 131.353 117.539C129.917 116.938 128.716 116.096 127.75 115.012C126.783 113.913 126.05 112.631 125.552 111.167C125.054 109.687 124.805 108.083 124.805 106.354ZM132.21 105.893V106.354C132.21 107.248 132.276 108.083 132.408 108.859C132.54 109.636 132.759 110.317 133.067 110.903C133.375 111.474 133.792 111.921 134.319 112.243C134.847 112.565 135.506 112.727 136.297 112.727C137.073 112.727 137.718 112.565 138.23 112.243C138.758 111.921 139.175 111.474 139.483 110.903C139.791 110.317 140.01 109.636 140.142 108.859C140.274 108.083 140.34 107.248 140.34 106.354V105.893C140.34 105.029 140.274 104.216 140.142 103.454C140.01 102.678 139.791 101.997 139.483 101.411C139.175 100.81 138.758 100.341 138.23 100.004C137.703 99.6675 137.044 99.499 136.253 99.499C135.477 99.499 134.825 99.6675 134.297 100.004C133.785 100.341 133.375 100.81 133.067 101.411C132.759 101.997 132.54 102.678 132.408 103.454C132.276 104.216 132.21 105.029 132.21 105.893ZM158.27 110.925L162.664 94.2256H167.3L165.652 102.597L161.302 118H157.588L158.27 110.925ZM156.534 94.2256L159.258 110.793L159.566 118H155.062L149.437 94.2256H156.534ZM171.211 110.441L173.958 94.2256H181.055L175.474 118H170.97L171.211 110.441ZM167.828 94.2256L172.266 110.881L172.947 118H169.19L164.927 102.641L163.345 94.2256H167.828ZM209.466 86.0078V118H201.753V86.0078H209.466ZM219.09 86.0078V91.9624H192.349V86.0078H219.09ZM216.475 106.354V105.893C216.475 104.15 216.724 102.546 217.222 101.081C217.72 99.6016 218.453 98.3198 219.419 97.2358C220.386 96.1519 221.58 95.3096 223.001 94.709C224.422 94.0938 226.062 93.7861 227.923 93.7861C229.798 93.7861 231.446 94.0938 232.867 94.709C234.302 95.3096 235.503 96.1519 236.47 97.2358C237.437 98.3198 238.169 99.6016 238.667 101.081C239.166 102.546 239.415 104.15 239.415 105.893V106.354C239.415 108.083 239.166 109.687 238.667 111.167C238.169 112.631 237.437 113.913 236.47 115.012C235.503 116.096 234.31 116.938 232.889 117.539C231.468 118.139 229.827 118.439 227.967 118.439C226.106 118.439 224.458 118.139 223.023 117.539C221.587 116.938 220.386 116.096 219.419 115.012C218.453 113.913 217.72 112.631 217.222 111.167C216.724 109.687 216.475 108.083 216.475 106.354ZM223.88 105.893V106.354C223.88 107.248 223.946 108.083 224.078 108.859C224.209 109.636 224.429 110.317 224.737 110.903C225.044 111.474 225.462 111.921 225.989 112.243C226.517 112.565 227.176 112.727 227.967 112.727C228.743 112.727 229.388 112.565 229.9 112.243C230.428 111.921 230.845 111.474 231.153 110.903C231.46 110.317 231.68 109.636 231.812 108.859C231.944 108.083 232.01 107.248 232.01 106.354V105.893C232.01 105.029 231.944 104.216 231.812 103.454C231.68 102.678 231.46 101.997 231.153 101.411C230.845 100.81 230.428 100.341 229.9 100.004C229.373 99.6675 228.714 99.499 227.923 99.499C227.146 99.499 226.495 99.6675 225.967 100.004C225.455 100.341 225.044 100.81 224.737 101.411C224.429 101.997 224.209 102.678 224.078 103.454C223.946 104.216 223.88 105.029 223.88 105.893ZM254.268 86.0078H266.858C269.319 86.0078 271.458 86.374 273.274 87.1064C275.091 87.8389 276.49 88.9229 277.471 90.3584C278.467 91.7939 278.965 93.5664 278.965 95.6758C278.965 97.5068 278.68 99.0376 278.108 100.268C277.537 101.499 276.739 102.517 275.713 103.322C274.703 104.113 273.523 104.765 272.176 105.278L269.649 106.706H259.08L259.036 100.751H266.858C267.84 100.751 268.653 100.576 269.297 100.224C269.942 99.8726 270.425 99.3745 270.748 98.73C271.084 98.0708 271.253 97.2871 271.253 96.3789C271.253 95.4561 271.084 94.665 270.748 94.0059C270.411 93.3467 269.913 92.8413 269.253 92.4897C268.609 92.1382 267.811 91.9624 266.858 91.9624H261.98V118H254.268V86.0078ZM271.78 118L264.705 103.85L272.879 103.806L280.042 117.67V118H271.78ZM297.159 112.221V94.2256H304.585V118H297.642L297.159 112.221ZM297.862 107.387L299.795 107.343C299.795 108.94 299.605 110.419 299.224 111.782C298.843 113.129 298.279 114.301 297.532 115.297C296.8 116.293 295.892 117.07 294.808 117.626C293.738 118.168 292.5 118.439 291.094 118.439C289.922 118.439 288.846 118.278 287.864 117.956C286.897 117.619 286.062 117.099 285.359 116.396C284.656 115.678 284.107 114.763 283.711 113.649C283.331 112.521 283.14 111.174 283.14 109.606V94.2256H290.545V109.65C290.545 110.178 290.611 110.632 290.743 111.013C290.875 111.394 291.065 111.716 291.314 111.979C291.563 112.229 291.871 112.419 292.237 112.551C292.618 112.668 293.05 112.727 293.533 112.727C294.646 112.727 295.518 112.492 296.148 112.023C296.778 111.555 297.217 110.917 297.466 110.112C297.73 109.306 297.862 108.398 297.862 107.387ZM315.945 99.3013V118H308.541V94.2256H315.484L315.945 99.3013ZM315.066 105.3L313.331 105.344C313.331 103.527 313.55 101.909 313.99 100.488C314.429 99.0522 315.052 97.8364 315.857 96.8403C316.663 95.8442 317.623 95.0898 318.736 94.5771C319.864 94.0498 321.116 93.7861 322.493 93.7861C323.592 93.7861 324.595 93.9473 325.503 94.2695C326.426 94.5918 327.217 95.1118 327.876 95.8296C328.55 96.5474 329.063 97.4995 329.415 98.686C329.781 99.8579 329.964 101.308 329.964 103.037V118H322.515V103.015C322.515 102.062 322.383 101.337 322.12 100.839C321.856 100.327 321.475 99.9751 320.977 99.7847C320.479 99.5942 319.871 99.499 319.153 99.499C318.392 99.499 317.747 99.6455 317.22 99.9385C316.692 100.231 316.268 100.642 315.945 101.169C315.638 101.682 315.411 102.29 315.264 102.993C315.132 103.696 315.066 104.465 315.066 105.3ZM345.85 107.871H339.544C339.544 106.582 339.632 105.446 339.808 104.465C339.998 103.469 340.32 102.575 340.774 101.784C341.229 100.993 341.844 100.261 342.62 99.5869C343.309 99.0156 343.902 98.4663 344.4 97.939C344.898 97.4116 345.279 96.877 345.542 96.335C345.806 95.793 345.938 95.2144 345.938 94.5991C345.938 93.8374 345.828 93.2148 345.608 92.7314C345.403 92.248 345.088 91.8892 344.664 91.6548C344.253 91.4058 343.733 91.2812 343.104 91.2812C342.591 91.2812 342.107 91.4058 341.653 91.6548C341.214 91.9038 340.855 92.292 340.577 92.8193C340.298 93.332 340.145 94.0132 340.115 94.8628H332.667C332.71 92.6802 333.194 90.9077 334.117 89.5454C335.054 88.1685 336.299 87.165 337.852 86.5352C339.419 85.8906 341.17 85.5684 343.104 85.5684C345.242 85.5684 347.081 85.8979 348.619 86.5571C350.157 87.2163 351.336 88.1978 352.156 89.5015C352.977 90.7905 353.387 92.3799 353.387 94.2695C353.387 95.5293 353.145 96.6279 352.662 97.5654C352.193 98.4883 351.556 99.3525 350.75 100.158C349.959 100.949 349.073 101.799 348.091 102.707C347.242 103.454 346.663 104.216 346.355 104.992C346.048 105.754 345.879 106.713 345.85 107.871ZM338.643 114.55C338.643 113.496 339.024 112.617 339.786 111.914C340.547 111.196 341.536 110.837 342.752 110.837C343.968 110.837 344.957 111.196 345.718 111.914C346.48 112.617 346.861 113.496 346.861 114.55C346.861 115.605 346.48 116.491 345.718 117.209C344.957 117.912 343.968 118.264 342.752 118.264C341.536 118.264 340.547 117.912 339.786 117.209C339.024 116.491 338.643 115.605 338.643 114.55Z" fill="#424241"/>
<path d="M1363 15C1363 6.71573 1356.28 0 1348 0H1134V167H1348C1356.28 167 1363 160.284 1363 152V15Z" fill="#5A49E3"/>
<path d="M1260.77 81.3079C1263.96 81.3079 1267.09 82.2553 1269.74 84.0303C1272.4 85.8053 1274.47 88.3282 1275.69 91.2799C1276.92 94.2316 1277.24 97.4796 1276.61 100.613C1275.99 103.747 1274.45 106.625 1272.19 108.884C1269.93 111.143 1267.05 112.682 1263.92 113.305C1260.79 113.928 1257.54 113.608 1254.59 112.386C1251.64 111.163 1249.11 109.093 1247.34 106.436C1245.56 103.78 1244.62 100.657 1244.62 97.4617C1244.62 93.1774 1246.32 89.0686 1249.35 86.0392C1252.38 83.0098 1256.48 81.3079 1260.77 81.3079ZM1260.77 75.9233C1256.51 75.9233 1252.35 77.1865 1248.8 79.5532C1245.26 81.9198 1242.5 85.2837 1240.87 89.2193C1239.24 93.1549 1238.81 97.4856 1239.64 101.664C1240.48 105.842 1242.53 109.679 1245.54 112.692C1248.55 115.704 1252.39 117.755 1256.57 118.586C1260.75 119.417 1265.08 118.991 1269.01 117.361C1272.95 115.73 1276.31 112.97 1278.68 109.428C1281.04 105.886 1282.31 101.722 1282.31 97.4617C1282.31 91.7493 1280.04 86.271 1276 82.2317C1271.96 78.1925 1266.48 75.9233 1260.77 75.9233Z" fill="white"/>
<path d="M1274.23 49H1220.38C1218.96 49 1217.59 49.5673 1216.58 50.5771C1215.57 51.5869 1215 52.9565 1215 54.3846V108.231C1215 109.659 1215.57 111.028 1216.58 112.038C1217.59 113.048 1218.96 113.615 1220.38 113.615H1231.15V108.231H1220.38V70.5384H1279.62V54.3846C1279.62 52.9565 1279.05 51.5869 1278.04 50.5771C1277.03 49.5673 1275.66 49 1274.23 49ZM1220.38 65.1538V54.3846H1274.23V65.1538H1220.38Z" fill="white"/>
<path d="M1255.38 89.3849V105.539L1268.85 97.4618L1255.38 89.3849Z" fill="white"/>
</svg>
